<?xml version="1.0" encoding="UTF-8"?>
<svg version="1.1" xmlns="http://www.w3.org/2000/svg" width="500" height="500">
<path d="M0 0 C2.0625 0.4375 2.0625 0.4375 4 1 C4 1.66 4 2.32 4 3 C4.66 3 5.32 3 6 3 C6 3.66 6 4.32 6 5 C6.66 5 7.32 5 8 5 C9.35961914 6.44897461 9.35961914 6.44897461 10.97265625 8.46484375 C13.76096388 11.76642553 16.64767152 14.41629873 20.05859375 17.06640625 C35.02456324 29.26353458 35.02456324 29.26353458 36.16029358 39.05674744 C36.70827672 47.41362431 35.96054118 55.6966551 35 64 C26.585 64.495 26.585 64.495 18 65 C17.67 70.61 17.34 76.22 17 82 C12.19443933 82.02293216 7.38906785 82.04285248 2.58349609 82.05493164 C0.94807289 82.05996621 -0.6873458 82.06679427 -2.32275391 82.07543945 C-4.67090975 82.08754335 -7.01900619 82.093237 -9.3671875 82.09765625 C-10.46726639 82.10539818 -10.46726639 82.10539818 -11.58956909 82.11329651 C-16.77225659 82.11387171 -16.77225659 82.11387171 -19 81 C-19 80.34 -19 79.68 -19 79 C-19.66 79 -20.32 79 -21 79 C-21 78.34 -21 77.68 -21 77 C-21.66 77 -22.32 77 -23 77 C-23 76.34 -23 75.68 -23 75 C-23.66 75 -24.32 75 -25 75 C-26.35386936 73.34997172 -27.68678142 71.6825613 -29 70 C-29.66 69.67 -30.32 69.34 -31 69 C-31.32246151 66.61958837 -31.51214764 64.34997156 -31.6171875 61.95703125 C-31.65472137 61.23997513 -31.69225525 60.52291901 -31.73092651 59.78413391 C-32.10207365 52.08642468 -32.15299901 44.39253345 -32.125 36.6875 C-32.12411377 35.97675323 -32.12322754 35.26600647 -32.12231445 34.53372192 C-32.10596599 23.3248073 -31.75198969 12.18584663 -31 1 C-25.06 1 -19.12 1 -13 1 C-12.67 4.96 -12.34 8.92 -12 13 C-11.21753906 12.14535156 -10.43507813 11.29070312 -9.62890625 10.41015625 C-8.60678273 9.29425993 -7.58464667 8.17837511 -6.5625 7.0625 C-6.04623047 6.49853516 -5.52996094 5.93457031 -4.99804688 5.35351562 C-1.11328125 1.11328125 -1.11328125 1.11328125 0 0 Z M-8.04150391 33.30517578 C-12.78751706 38.32288367 -13.81423253 42.43703645 -14.01293945 49.27099609 C-13.82472105 54.18866003 -13.38587407 59.09388688 -13 64 C-3.43 64 6.14 64 16 64 C18.01266144 48.93001042 18.01266144 48.93001042 12.91796875 35.2890625 C9.58262561 31.76278116 5.96862177 28.78637474 2 26 C-1.29028631 26 -5.66237541 31.13502083 -8.04150391 33.30517578 Z " fill="#FC9D2A" transform="translate(131,204)"/>
<path d="M0 0 C6.991875 -0.12375 6.991875 -0.12375 14.125 -0.25 C15.58437988 -0.28641602 17.04375977 -0.32283203 18.54736328 -0.36035156 C19.70993652 -0.3703418 20.87250977 -0.38033203 22.0703125 -0.390625 C23.84559326 -0.4220459 23.84559326 -0.4220459 25.65673828 -0.45410156 C30.54503846 0.20985625 33.64870274 2.46852977 36.875 6.125 C38.56276959 10.43818895 38.671288 14.43232295 38 19 C35.14084507 24.61971831 35.14084507 24.61971831 31 26 C31.48210937 26.95261719 31.96421875 27.90523437 32.4609375 28.88671875 C33.09906604 30.15359159 33.73708086 31.42052171 34.375 32.6875 C34.69210937 33.31333984 35.00921875 33.93917969 35.3359375 34.58398438 C37.06391317 38.02193598 38.56729093 41.41822734 40 45 C36.04 45 32.08 45 28 45 C27.43152344 43.85660156 26.86304688 42.71320313 26.27734375 41.53515625 C25.49872125 40.0435782 24.71869956 38.55272996 23.9375 37.0625 C23.56689453 36.30775391 23.19628906 35.55300781 22.81445312 34.77539062 C22.43095703 34.05673828 22.04746094 33.33808594 21.65234375 32.59765625 C21.31195068 31.93258057 20.97155762 31.26750488 20.62084961 30.58227539 C18.53041726 28.23015122 18.53041726 28.23015122 12 28 C12 33.61 12 39.22 12 45 C8.04 45 4.08 45 0 45 C0 30.15 0 15.3 0 0 Z M12 10 C12 13.3 12 16.6 12 20 C19.27734661 20.72219068 19.27734661 20.72219068 25.6875 18 C26.120625 17.34 26.55375 16.68 27 16 C25.88145414 12.27385847 25.88145414 12.27385847 23 10 C21.12620395 9.92966231 19.24998898 9.9156978 17.375 9.9375 C15.87066406 9.95103516 15.87066406 9.95103516 14.3359375 9.96484375 C13.17964844 9.98224609 13.17964844 9.98224609 12 10 Z " fill="#000000" transform="translate(268,223)"/>
<path d="M0 0 C0.495 0.99 0.495 0.99 1 2 C0.22265625 3.9453125 0.22265625 3.9453125 -0.9375 6.125 C-1.50791016 7.21167969 -1.50791016 7.21167969 -2.08984375 8.3203125 C-2.39019531 8.87460938 -2.69054687 9.42890625 -3 10 C-3.56847656 9.855625 -4.13695312 9.71125 -4.72265625 9.5625 C-12.95066577 7.38981547 -12.95066577 7.38981547 -21 9 C-21.33 9.99 -21.66 10.98 -22 12 C-20.741875 12.391875 -19.48375 12.78375 -18.1875 13.1875 C-14.44058357 14.45230697 -10.76873182 15.83696673 -7.125 17.375 C-6.22007812 17.75398438 -5.31515625 18.13296875 -4.3828125 18.5234375 C-1.45966765 20.3348289 -0.42122431 21.88618493 1 25 C1.85910064 29.88371628 1.48731743 33.92790165 -0.5625 38.4375 C-4.65717344 42.7421567 -7.6881622 43.81276454 -13.47265625 44.28125 C-20.91510884 44.46004766 -27.20906528 44.1612972 -34 41 C-35 38 -35 38 -34.22265625 36.17578125 C-33.1484375 34.45052083 -32.07421875 32.72526042 -31 31 C-30.443125 31.144375 -29.88625 31.28875 -29.3125 31.4375 C-23.10012709 32.94861773 -17.21961191 34.07320397 -11 32 C-11 31.01 -11 30.02 -11 29 C-12.08539063 28.64808594 -13.17078125 28.29617187 -14.2890625 27.93359375 C-28.73581217 23.0440281 -28.73581217 23.0440281 -32.2109375 17.98828125 C-33.80844709 13.96287343 -33.80005396 10.2159365 -33 6 C-31.20400108 2.04880237 -29.70423028 0.44950869 -26.0625 -1.875 C-18.0268551 -4.77820074 -7.54773267 -3.99370321 0 0 Z " fill="#010101" transform="translate(263,225)"/>
<path d="M0 0 C0.796875 1.90625 0.796875 1.90625 1 4 C-0.4375 7.25 -0.4375 7.25 -2 10 C-2.763125 9.835 -3.52625 9.67 -4.3125 9.5 C-13.46835274 8.15486163 -13.46835274 8.15486163 -22.0625 10.6875 C-25.19280283 14.42366789 -26.23917718 17.15644346 -25.875 22 C-25.19810637 25.98615139 -24.15873754 28.31507309 -21 31 C-14.38780654 33.82030292 -8.783222 32.71969008 -2 31 C-1.01 33.97 -0.02 36.94 1 40 C-6.24244215 44.50205863 -12.56533059 44.79300311 -21 44 C-27.57735017 41.99217732 -32.25399615 38.7360684 -36 33 C-38.77691589 25.99392953 -39.62847462 17.23043539 -36.8125 10.0625 C-32.94968563 3.53567573 -30.01271126 0.2546207 -22.81640625 -2.30859375 C-14.94177864 -4.24175476 -7.18679556 -3.79679766 0 0 Z " fill="#010101" transform="translate(224,225)"/>
<path d="M0 0 C0.08090971 1.62418745 0.13914995 3.24951745 0.1875 4.875 C0.22230469 5.77992188 0.25710938 6.68484375 0.29296875 7.6171875 C0.19628906 8.40351563 0.09960938 9.18984375 0 10 C-3.8503105 12.56687367 -5.58569763 11.83288724 -10 11 C-10.36010591 3.67784643 -10.36010591 3.67784643 -8.9375 1 C-5.97912322 -0.52690415 -3.26283401 -0.18468872 0 0 Z M-6 2 C-6.99 3.485 -6.99 3.485 -8 5 C-6.02 5.99 -6.02 5.99 -4 7 C-3.34 5.68 -2.68 4.36 -2 3 C-3.32 2.67 -4.64 2.34 -6 2 Z M-9 8 C-8.34 8.66 -7.68 9.32 -7 10 C-6.01 9.67 -5.02 9.34 -4 9 C-5.65 8.67 -7.3 8.34 -9 8 Z " fill="#111111" transform="translate(394,281)"/>
<path d="M0 0 C0.08090971 1.62418745 0.13914995 3.24951745 0.1875 4.875 C0.22230469 5.77992188 0.25710937 6.68484375 0.29296875 7.6171875 C0.19628906 8.40351563 0.09960938 9.18984375 0 10 C-3 12 -3 12 -6.1875 11.625 C-7.5796875 11.315625 -7.5796875 11.315625 -9 11 C-9 9.68 -9 8.36 -9 7 C-9.33 6.01 -9.66 5.02 -10 4 C-9.67 3.01 -9.34 2.02 -9 1 C-6.04335481 -0.4783226 -3.25770263 -0.06032783 0 0 Z M-6 2 C-6.33 3.32 -6.66 4.64 -7 6 C-6.01 6.33 -5.02 6.66 -4 7 C-3.34 6.67 -2.68 6.34 -2 6 C-2.33 4.68 -2.66 3.36 -3 2 C-3.99 2 -4.98 2 -6 2 Z " fill="#131313" transform="translate(217,281)"/>
<path d="M0 0 C2.97 0 5.94 0 9 0 C9 0.99 9 1.98 9 3 C6.69 3 4.38 3 2 3 C2 3.66 2 4.32 2 5 C3.98 5 5.96 5 8 5 C8 5.66 8 6.32 8 7 C6.02 7 4.04 7 2 7 C2 7.66 2 8.32 2 9 C4.31 9 6.62 9 9 9 C9 9.66 9 10.32 9 11 C6.03 11 3.06 11 0 11 C0 7.37 0 3.74 0 0 Z " fill="#121212" transform="translate(186,278)"/>
<path d="M0 0 C2.46278801 2.46278801 2.99771255 4.70676982 4 8 C0.52674819 9.1577506 -2.36067448 9.06866652 -6 9 C-6.59732819 6.23735711 -7 3.83967231 -7 1 C-4.48718205 -0.25640898 -2.78302919 -0.20872719 0 0 Z M-4 5 C-4.33 5.66 -4.66 6.32 -5 7 C-3.68 6.67 -2.36 6.34 -1 6 C-1.99 5.67 -2.98 5.34 -4 5 Z " fill="#121211" transform="translate(259,281)"/>
<path d="M0 0 C3.625 0.375 3.625 0.375 7 1 C7 2.65 7 4.3 7 6 C7.66 6 8.32 6 9 6 C8.67 6.99 8.34 7.98 8 9 C0.25 9.125 0.25 9.125 -2 8 C-2.125 5.125 -2.125 5.125 -2 2 C-1.34 1.34 -0.68 0.68 0 0 Z M1 2 C5 3 5 3 5 3 Z M1 5 C1 5.66 1 6.32 1 7 C2.32 6.34 3.64 5.68 5 5 C3.68 5 2.36 5 1 5 Z " fill="#151515" transform="translate(402,281)"/>
<path d="M0 0 C3.625 0.375 3.625 0.375 7 1 C7 2.65 7 4.3 7 6 C7.66 6 8.32 6 9 6 C8.67 6.99 8.34 7.98 8 9 C0.25 9.125 0.25 9.125 -2 8 C-2.125 5.125 -2.125 5.125 -2 2 C-1.34 1.34 -0.68 0.68 0 0 Z M1 2 C5 3 5 3 5 3 Z M1 5 C1 5.66 1 6.32 1 7 C2.32 6.34 3.64 5.68 5 5 C3.68 5 2.36 5 1 5 Z " fill="#151515" transform="translate(279,281)"/>
<path d="M0 0 C1.32 0 2.64 0 4 0 C5.5625 2.375 5.5625 2.375 7 5 C7.99 5.66 8.98 6.32 10 7 C10.34057617 9.33837891 10.34057617 9.33837891 10.29296875 12.2265625 C10.28330078 13.2578125 10.27363281 14.2890625 10.26367188 15.3515625 C10.23853516 16.43179688 10.21339844 17.51203125 10.1875 18.625 C10.17396484 19.71296875 10.16042969 20.8009375 10.14648438 21.921875 C10.11104754 24.61507409 10.06164331 27.30729374 10 30 C9.34 30 8.68 30 8 30 C8.00636475 29.3702124 8.01272949 28.7404248 8.01928711 28.09155273 C8.02803454 25.20569538 7.98318538 22.3229885 7.9375 19.4375 C7.95393555 17.9515332 7.95393555 17.9515332 7.97070312 16.43554688 C7.84320708 10.95321709 7.44064576 7.7904691 3.44140625 3.84765625 C2.29803188 2.8939105 1.15202296 1.94328098 0 1 C0 0.67 0 0.34 0 0 Z " fill="#E89F48" transform="translate(139,236)"/>
<path d="M0 0 C3.625 0.375 3.625 0.375 7 1 C7.33 2.98 7.66 4.96 8 7 C5 9 5 9 1.875 8.6875 C-1 8 -1 8 -2 7 C-2.1875 4.5625 -2.1875 4.5625 -2 2 C-1.34 1.34 -0.68 0.68 0 0 Z M1 5 C1.33 5.66 1.66 6.32 2 7 C3.32 6.34 4.64 5.68 6 5 C4.35 5 2.7 5 1 5 Z " fill="#181617" transform="translate(297,281)"/>
<path d="M0 0 C3.625 0.375 3.625 0.375 7 1 C7.33 2.98 7.66 4.96 8 7 C5 9 5 9 1.875 8.6875 C-1 8 -1 8 -2 7 C-2.1875 4.5625 -2.1875 4.5625 -2 2 C-1.34 1.34 -0.68 0.68 0 0 Z M1 5 C1.33 5.66 1.66 6.32 2 7 C3.32 6.34 4.64 5.68 6 5 C4.35 5 2.7 5 1 5 Z " fill="#121212" transform="translate(221,281)"/>
<path d="M0 0 C2 2 2 2 2.125 5.125 C2.08375 6.07375 2.0425 7.0225 2 8 C-0.75 8.75 -0.75 8.75 -4 9 C-6.4375 7.3125 -6.4375 7.3125 -8 5 C-7.875 2.8125 -7.875 2.8125 -7 1 C-4.48718205 -0.25640898 -2.78302919 -0.20872719 0 0 Z M-5 5 C-4.67 5.66 -4.34 6.32 -4 7 C-2.35 6.67 -0.7 6.34 1 6 C1 5.67 1 5.34 1 5 C-0.98 5 -2.96 5 -5 5 Z " fill="#131313" transform="translate(331,281)"/>
<path d="M0 0 C3 0.25 3 0.25 5 2.25 C5.3125 4.75 5.3125 4.75 5 7.25 C2 9.25 2 9.25 -1.125 8.9375 C-4 8.25 -4 8.25 -5 7.25 C-5.1875 4.8125 -5.1875 4.8125 -5 2.25 C-3 0.25 -3 0.25 0 0 Z M-2 2.25 C-2.33 3.57 -2.66 4.89 -3 6.25 C-1.68 6.58 -0.36 6.91 1 7.25 C1.66 5.93 2.32 4.61 3 3.25 C1.35 2.92 -0.3 2.59 -2 2.25 Z " fill="#0F0F0E" transform="translate(362,280.75)"/>
<path d="M0 0 C0.66 0 1.32 0 2 0 C2.33 0.99 2.66 1.98 3 3 C3.804375 2.979375 4.60875 2.95875 5.4375 2.9375 C8 3 8 3 9 4 C9.04092937 6.33297433 9.04241723 8.66705225 9 11 C8.34 11 7.68 11 7 11 C6.67 9.35 6.34 7.7 6 6 C5.34 6 4.68 6 4 6 C3.34 7.65 2.68 9.3 2 11 C1.34 11 0.68 11 0 11 C0 7.37 0 3.74 0 0 Z " fill="#0D0D0D" transform="translate(241,278)"/>
<path d="M0 0 C3.625 0.375 3.625 0.375 7 1 C7.6875 3.3125 7.6875 3.3125 8 6 C6.9375 7.875 6.9375 7.875 5 9 C-0.43478261 8.56521739 -0.43478261 8.56521739 -2 7 C-2.1875 4.5625 -2.1875 4.5625 -2 2 C-1.34 1.34 -0.68 0.68 0 0 Z M1 2 C0.67 3.32 0.34 4.64 0 6 C1.32 6.33 2.64 6.66 4 7 C4.66 6.01 5.32 5.02 6 4 C5.34 3.34 4.68 2.68 4 2 C3.01 2 2.02 2 1 2 Z " fill="#101010" transform="translate(375,281)"/>
<path d="M0 0 C3.625 0.375 3.625 0.375 7 1 C7 1.99 7 2.98 7 4 C4.03 3.505 4.03 3.505 1 3 C0.67 3.99 0.34 4.98 0 6 C2.64 5.67 5.28 5.34 8 5 C7.67 5.99 7.34 6.98 7 8 C4.1875 8.625 4.1875 8.625 1 9 C0.01 8.34 -0.98 7.68 -2 7 C-2.3125 4.5 -2.3125 4.5 -2 2 C-1.34 1.34 -0.68 0.68 0 0 Z " fill="#111110" transform="translate(337,281)"/>
<path d="M0 0 C3.3 0 6.6 0 10 0 C10 0.99 10 1.98 10 3 C8.68 3 7.36 3 6 3 C6 5.64 6 8.28 6 11 C5.34 11 4.68 11 4 11 C4 8.36 4 5.72 4 3 C2.68 3 1.36 3 0 3 C0 2.01 0 1.02 0 0 Z " fill="#0A0A0A" transform="translate(312,278)"/>
<path d="M0 0 C6.15234375 -0.09765625 6.15234375 -0.09765625 8 0 C9 1 9 1 9.0625 4.5625 C9.041875 5.696875 9.02125 6.83125 9 8 C8.34 8 7.68 8 7 8 C6.67 6.35 6.34 4.7 6 3 C5.34 3 4.68 3 4 3 C3.34 4.65 2.68 6.3 2 8 C1.34 8 0.68 8 0 8 C0 5.36 0 2.72 0 0 Z " fill="#0E0E0C" transform="translate(346,281)"/>
<path d="M0 0 C3.375 -0.1875 3.375 -0.1875 7 0 C9.1519437 3.22791555 9.20086443 4.28400809 9 8 C8.01 8 7.02 8 6 8 C6 6.02 6 4.04 6 2 C5.01 2.33 4.02 2.66 3 3 C2.67 4.65 2.34 6.3 2 8 C1.34 8 0.68 8 0 8 C0 5.36 0 2.72 0 0 Z " fill="#0C0C0C" transform="translate(231,281)"/>
<path d="M0 0 C3.375 -0.125 3.375 -0.125 7 0 C9 2 9 2 9.125 5.125 C9.08375 6.07375 9.0425 7.0225 9 8 C8.34 8 7.68 8 7 8 C6.67 6.35 6.34 4.7 6 3 C5.01 3 4.02 3 3 3 C2.67 4.65 2.34 6.3 2 8 C1.34 8 0.68 8 0 8 C0 5.36 0 2.72 0 0 Z " fill="#141414" transform="translate(197,281)"/>
<path d="M0 0 C1.98 0 3.96 0 6 0 C6.33 1.32 6.66 2.64 7 4 C6.34 4 5.68 4 5 4 C5 3.34 5 2.68 5 2 C4.01 2.495 4.01 2.495 3 3 C2.34444881 5.52733235 2.34444881 5.52733235 2 8 C1.34 8 0.68 8 0 8 C0 5.36 0 2.72 0 0 Z " fill="#11110F" transform="translate(264,281)"/>
<path d="M0 0 C0.33 0.99 0.66 1.98 1 3 C2.423125 2.4740625 2.423125 2.4740625 3.875 1.9375 C7 1 7 1 9 2 C8.67 2.99 8.34 3.98 8 5 C5.36 5 2.72 5 0 5 C-0.33 4.01 -0.66 3.02 -1 2 C-0.67 1.34 -0.34 0.68 0 0 Z " fill="#0D0D0D" transform="translate(279,285)"/>
<path d="M0 0 C-0.33 0.99 -0.66 1.98 -1 3 C-7.0546875 3.1953125 -7.0546875 3.1953125 -9 3 C-9.66 2.34 -10.32 1.68 -11 1 C-3.57142857 -1.42857143 -3.57142857 -1.42857143 0 0 Z " fill="#0B0B0B" transform="translate(411,287)"/>
<path d="M0 0 C0.66 0.33 1.32 0.66 2 1 C1.67 2.32 1.34 3.64 1 5 C3.64 4.67 6.28 4.34 9 4 C9 4.99 9 5.98 9 7 C6.25 7.75 6.25 7.75 3 8 C0.5625 6.3125 0.5625 6.3125 -1 4 C-0.75 1.75 -0.75 1.75 0 0 Z " fill="#0C0C0C" transform="translate(324,282)"/>
<path d="M0 0 C2.23915424 0.73602403 2.23915424 0.73602403 5.0625 -0.5 C5.0625 0.49 5.0625 1.48 5.0625 2.5 C2.25 3.1875 2.25 3.1875 -0.9375 3.5 C-2.8125 2.0625 -2.8125 2.0625 -3.9375 0.5 C-1.9375 -0.5 -1.9375 -0.5 0 0 Z " fill="#0D0D0D" transform="translate(298.9375,286.5)"/>
<path d="M0 0 C2.23915424 0.73602403 2.23915424 0.73602403 5.0625 -0.5 C5.0625 0.49 5.0625 1.48 5.0625 2.5 C2.25 3.1875 2.25 3.1875 -0.9375 3.5 C-2.8125 2.0625 -2.8125 2.0625 -3.9375 0.5 C-1.9375 -0.5 -1.9375 -0.5 0 0 Z " fill="#0C0C0C" transform="translate(222.9375,286.5)"/>
<path d="M0 0 C0.66 0 1.32 0 2 0 C2 3.63 2 7.26 2 11 C1.34 11 0.68 11 0 11 C0 7.37 0 3.74 0 0 Z " fill="#141414" transform="translate(369,278)"/>
<path d="M0 0 C0.66 0 1.32 0 2 0 C2 3.63 2 7.26 2 11 C1.34 11 0.68 11 0 11 C0 7.37 0 3.74 0 0 Z " fill="#151515" transform="translate(273,278)"/>
<path d="M0 0 C2.31 0 4.62 0 7 0 C7 0.99 7 1.98 7 3 C4.69 3 2.38 3 0 3 C0 2.01 0 1.02 0 0 Z " fill="#040404" transform="translate(188,278)"/>
<path d="M0 0 C0.33 0 0.66 0 1 0 C1 3.63 1 7.26 1 11 C0.34 11 -0.32 11 -1 11 C-1.02688151 9.35425434 -1.04634123 7.70838587 -1.0625 6.0625 C-1.07410156 5.14597656 -1.08570313 4.22945313 -1.09765625 3.28515625 C-1 1 -1 1 0 0 Z " fill="#101111" transform="translate(397,278)"/>
<path d="M0 0 C6.15234375 0.5859375 6.15234375 0.5859375 8 1 C8.33 1.66 8.66 2.32 9 3 C6.1875 3.625 6.1875 3.625 3 4 C2.01 3.34 1.02 2.68 0 2 C0 1.34 0 0.68 0 0 Z " fill="#0B0B0B" transform="translate(207,289)"/>
<path d="M0 0 C0.66 0.99 1.32 1.98 2 3 C2.99 3 3.98 3 5 3 C4.67 3.99 4.34 4.98 4 6 C1.5625 5.1875 1.5625 5.1875 -1 4 C-1.33 3.01 -1.66 2.02 -2 1 C-1.34 0.67 -0.68 0.34 0 0 Z " fill="#0D0D0D" transform="translate(209,284)"/>
<path d="M0 0 C0.99 0 1.98 0 3 0 C3 0.99 3 1.98 3 3 C3.66 3 4.32 3 5 3 C4.67 4.32 4.34 5.64 4 7 C4 6.34 4 5.68 4 5 C3.34 5 2.68 5 2 5 C2 4.34 2 3.68 2 3 C1.34 3 0.68 3 0 3 C0 2.01 0 1.02 0 0 Z " fill="#FAAD2B" transform="translate(106,276)"/>
</svg>
